<?xml version="1.0" encoding="utf-8"?>
<!-- Generator: Adobe Illustrator 18.1.1, SVG Export Plug-In . SVG Version: 6.00 Build 0)  -->
<svg version="1.1" id="Layer_1" xmlns:sketch="http://www.bohemiancoding.com/sketch/ns"
	 xmlns="http://www.w3.org/2000/svg" xmlns:xlink="http://www.w3.org/1999/xlink" x="0px" y="0px" viewBox="0 0 612 792"
	 enable-background="new 0 0 612 792" xml:space="preserve">
<g id="Layer_1_1_">
	<path id="Shape_1_" fill="#FFCC33" d="M85,640.5L35.9,90.4H575l-49.1,550.2l-220.7,61.1L85,640.5z"/>
	<path id="Shape_2_" fill="#FFFF33" d="M305.5,654.9l178.3-49.5l42-470.1H305.5V654.9z"/>
	<g id="Group" transform="translate(55.000000, 142.000000)">
		<path id="Shape_3_" fill="#FFFFFF" d="M250.5,192.7h89.3l6.2-69h-95.5V56.2h0.2h168.9L418,74.3l-16.7,185.9H250.4v-67.6H250.5z"/>
		<path id="Shape_4_" fill="#EBEBEB" d="M250.9,367.9h-0.4l-75.2-20.3l-4.9-53.8h-36.6h-31.2l9.4,106l138.3,38.4h0.4v-70.3H250.9z"
			/>
		<path id="Shape_5_" fill="#FFFFFF" d="M334.1,257.4l-8.2,90.4l-75.2,20.3v70.1L389,399.8l1.1-11.4l11.8-131.2h-67.8V257.4z"/>
		<path id="Shape_6_" fill="#EBEBEB" d="M250.7,56v41.9v25.4v0.2H88h-0.2l-1.3-15.2L83.5,74l-1.6-18.1h168.9V56z"/>
		<path id="Shape_7_" fill="#EBEBEB" d="M250.5,192.7v41.9v25.4v0.2h-73.9h-0.2l-1.3-15.2l-3.1-34.2l-1.6-18.1h80.1V192.7z"/>
	</g>
</g>
</svg>
