<?xml version="1.0" encoding="utf-8"?>
<!-- Generator: Adobe Illustrator 18.1.1, SVG Export Plug-In . SVG Version: 6.00 Build 0)  -->
<svg version="1.1" id="Layer_1" xmlns="http://www.w3.org/2000/svg" xmlns:xlink="http://www.w3.org/1999/xlink" x="0px" y="0px"
	 viewBox="0 0 612 792" enable-background="new 0 0 612 792" xml:space="preserve">
<title>HTML5 Logo Badge</title>
<path fill="#E34F26" d="M84.9,639.8L35.9,90H575l-49,549.8L304.8,702"/>
<path fill="#EF652A" d="M306,654.2l178.1-49l41.8-471H306"/>
<path display="none" fill="#EBEBEB" stroke="#EBEBEB" stroke-miterlimit="10" d="M306,338.6h-89.6l-6-69.3H306v-66.9h-1.2H136.3
	l1.2,17.9l16.7,186.5H306V338.6z M306,514.3h-1.2L229.5,494l-4.8-53.8h-35.9h-31.1l8.4,106.4l138.7,38.3h1.2V514.3z"/>
<path display="none" fill="#FFFFFF" d="M304.8,338.6v68.1h83.7l-8.4,87.3l-75.3,20.3v70.5l138.7-38.3l1.2-12l15.5-178.1l2.4-17.9
	h-19.1H304.8V338.6z M304.8,202.4v41.8v25.1l0,0h163.8l0,0l0,0l1.2-14.3l3.6-34.7l1.2-17.9H304.8z"/>
<polygon fill="#EBEBEB" stroke="#EBEBEB" stroke-width="0.1" stroke-miterlimit="10" points="306,202.6 123,202.6 129.1,272 
	155.8,272 178.7,564.7 254,582 239.2,391 274.8,391 306,449.4 306,391 306,358 306,325 234.1,325 230.1,272 306,272 "/>
<polygon fill="#FFFFFF" stroke="#EBEBEB" stroke-width="0.1" stroke-miterlimit="10" points="351.7,391 365.8,391 412,391 
	431.3,391 440,272 439.4,272 446.2,202.6 304,202.6 304,272 373.3,272 370,325 304,325 304,358 304,391 304,449.4 374.7,582 
	446.5,561.3 "/>
</svg>
