<?xml version="1.0" encoding="utf-8"?>
<!-- Generator: Adobe Illustrator 18.1.1, SVG Export Plug-In . SVG Version: 6.00 Build 0)  -->
<svg version="1.1" id="Layer_1" xmlns="http://www.w3.org/2000/svg" xmlns:xlink="http://www.w3.org/1999/xlink" x="0px" y="0px"
	 viewBox="0 0 960 560" enable-background="new 0 0 960 560" xml:space="preserve">
<rect x="43.1" y="157" fill="#5BBA47" stroke="#000000" stroke-miterlimit="10" width="336.3" height="249.2"/>
<text transform="matrix(1 0 0 1 114.7226 260.2431)" fill="#FFFFCC" font-family="'SegoeUI-Semilight'" font-size="48.3137">310 x 230</text>
<text transform="matrix(1 0 0 1 114.7226 260.2431)" fill="none" stroke="#FFF4C9" stroke-width="1.5" stroke-miterlimit="10" font-family="'SegoeUI-Semilight'" font-size="48.3137">310 x 230</text>
<text transform="matrix(1 0 0 1 77.3413 318.2119)" fill="#FFFFCC" font-family="'SegoeUI-Semilight'" font-size="48.3137">SkewX(0deg)</text>
<text transform="matrix(1 0 0 1 77.3413 318.2119)" fill="none" stroke="#FFF4C9" stroke-width="1.5" stroke-miterlimit="10" font-family="'SegoeUI-Semilight'" font-size="48.3137">SkewX(0deg)</text>
<polygon fill="#5BBA47" stroke="#000000" stroke-miterlimit="10" points="786.6,406.2 450.3,406.2 585,157 921.3,157 "/>
<text transform="matrix(1 0 0 1 567.8848 260.243)" fill="#FFFFCC" font-family="'SegoeUI-Semilight'" font-size="48.3137">310 x 230</text>
<text transform="matrix(1 0 0 1 567.8848 260.243)" fill="none" stroke="#FFF4C9" stroke-width="1.5" stroke-miterlimit="10" font-family="'SegoeUI-Semilight'" font-size="48.3137">310 x 230</text>
<text transform="matrix(1 0 0 1 530.5029 318.2113)" fill="#FFFFCC" font-family="'SegoeUI-Semilight'" font-size="48.3137">SkewX(0deg)</text>
<text transform="matrix(1 0 0 1 530.5029 318.2113)" fill="none" stroke="#FFF4C9" stroke-width="1.5" stroke-miterlimit="10" font-family="'SegoeUI-Semilight'" font-size="48.3137">SkewX(0deg)</text>
</svg>
